<svg version="1.1" id="Layer_1" xmlns="http://www.w3.org/2000/svg" xmlns:xlink="http://www.w3.org/1999/xlink" x="0px" y="0px"
	 width="100%" viewBox="0 0 1080 300" enable-background="new 0 0 1080 300" xml:space="preserve" style="background-color: transparent;">
<path fill="#FEFEFE" opacity="1.000000" stroke="none" 
	d="
M781.000000,301.000000 
	C520.666687,301.000000 260.833435,301.000000 1.000105,301.000000 
	C1.000070,201.000061 1.000070,101.000130 1.000035,1.000145 
	C360.999878,1.000097 720.999756,1.000097 1080.999756,1.000048 
	C1080.999756,100.999855 1080.999756,200.999710 1080.999878,300.999786 
	C981.166687,301.000000 881.333313,301.000000 781.000000,301.000000 
M53.693481,161.972153 
	C59.211082,161.262177 65.916504,162.270386 69.981934,159.459854 
	C76.960732,154.635223 82.648010,155.966003 89.173157,158.903397 
	C92.195496,160.263962 95.377319,161.334885 98.573868,162.224304 
	C101.372375,163.002975 101.915100,164.518005 101.793892,167.302856 
	C100.498863,197.055969 127.295929,220.473877 156.826187,215.680222 
	C166.961838,214.034897 175.764160,209.761169 183.333893,202.928024 
	C189.098633,207.108490 194.302292,211.313278 199.938431,214.823669 
	C203.961746,217.329529 205.170547,220.204407 205.092896,224.933273 
	C204.683380,249.871307 230.844421,266.455231 253.300095,255.751343 
	C270.256866,247.668625 277.405487,227.385757 269.271271,210.436035 
	C261.113373,193.436935 241.085754,186.422577 223.989838,194.815262 
	C220.829239,196.366867 218.696152,196.206512 215.999573,193.985657 
	C211.895599,190.605713 207.605637,187.353714 203.028320,184.672913 
	C198.097809,181.785278 195.811447,178.308594 197.435562,172.519333 
	C197.952957,170.675034 197.569702,168.548294 197.449097,166.559860 
	C196.889008,157.324661 193.251160,149.210327 187.930740,141.753540 
	C193.846756,133.540604 199.499344,125.507378 205.423645,117.679810 
	C206.262924,116.570923 208.397049,116.079483 209.979813,115.964951 
	C214.440369,115.642197 219.072311,116.351967 223.376801,115.434845 
	C244.538528,110.926071 256.892731,89.721664 250.640381,69.219200 
	C244.513489,49.128147 222.013550,38.402519 202.428635,46.236851 
	C182.357468,54.265682 173.928879,77.237953 183.583771,96.996361 
	C184.364975,98.595070 184.109528,101.530350 183.110687,103.026894 
	C178.491730,109.947533 173.364136,116.526176 168.585556,123.344246 
	C167.029297,125.564735 165.652603,126.118767 162.828110,125.421509 
	C146.886826,121.486267 132.088470,124.028404 118.970627,134.270767 
	C115.182358,137.228638 111.916992,142.543594 107.910530,143.087997 
	C103.369736,143.704987 98.265999,140.175186 93.406204,138.450668 
	C91.995338,137.950027 90.602013,137.385712 89.164757,136.976746 
	C86.579239,136.241074 85.264374,135.051224 84.783089,131.943619 
	C82.373116,116.382767 67.240646,106.605370 52.236797,110.531242 
	C40.552666,113.588486 32.593407,123.635551 32.328735,135.661423 
	C32.059296,147.903992 39.892342,157.866531 53.693481,161.972153 
M651.498291,242.000702 
	C663.371216,242.282486 675.180176,242.222473 685.986389,236.162598 
	C698.239563,229.291245 705.283813,219.554672 705.135742,204.815048 
	C704.824524,173.825592 705.000366,142.830719 705.067017,111.838287 
	C705.084778,103.560432 702.201050,96.537201 696.519775,90.670593 
	C686.902466,80.739548 674.825623,76.895149 661.307251,76.879288 
	C640.478882,76.854843 619.650574,76.876366 598.822205,76.902214 
	C597.902832,76.903358 596.983643,77.140839 596.276123,77.238884 
	C596.276123,132.325821 596.276123,187.061752 596.276123,242.000702 
	C614.547852,242.000702 632.523438,242.000702 651.498291,242.000702 
M1042.439697,191.498367 
	C1042.440552,165.499634 1042.353516,139.500427 1042.491821,113.502441 
	C1042.537354,104.943413 1040.209717,97.445778 1034.398315,91.109192 
	C1028.965942,85.185959 1022.339050,80.858055 1014.587158,79.165855 
	C997.331848,75.399132 979.738708,75.034081 962.598328,78.957817 
	C942.382690,83.585526 933.257874,96.411873 933.258118,117.091499 
	C933.258484,145.423401 933.255493,173.755295 933.259277,202.087189 
	C933.261963,222.489319 942.739258,235.769348 962.947205,239.858414 
	C974.853333,242.267609 987.422424,241.805969 999.694580,241.825043 
	C1005.565857,241.834167 1011.675415,240.666092 1017.268860,238.804626 
	C1034.100830,233.203232 1042.432007,221.107285 1042.439453,203.496582 
	C1042.441040,199.830093 1042.439697,196.163620 1042.439697,191.498367 
M551.411499,233.980240 
	C562.176147,226.665878 567.116638,216.670776 566.960693,203.498337 
	C566.617371,174.517029 566.852783,145.528839 566.854370,116.543449 
	C566.855530,96.564980 557.604004,83.821205 537.997070,79.021286 
	C521.497681,74.982117 504.427490,75.230415 487.946472,78.579895 
	C467.315735,82.772743 457.724243,96.067375 457.723602,116.960228 
	C457.722717,146.445358 457.616486,175.931320 457.837860,205.414780 
	C457.873260,210.126312 458.443024,215.263443 460.387421,219.450806 
	C466.335358,232.260071 477.471466,239.006348 490.922852,240.826111 
	C501.574493,242.267120 512.497864,241.792618 523.303894,241.972046 
	C533.177856,242.136017 542.393127,239.653641 551.411499,233.980240 
M833.567383,214.109787 
	C828.311096,210.986588 826.395386,206.316956 826.423279,200.288071 
	C826.549805,172.970840 826.457214,145.652649 826.490601,118.334869 
	C826.501831,109.137627 831.931396,103.024574 841.196655,102.006783 
	C845.153564,101.572121 849.180786,101.646606 853.173645,101.694000 
	C866.078003,101.847145 870.745056,105.935814 872.706116,118.629524 
	C873.794067,125.671654 880.075134,130.256592 888.471130,130.137192 
	C895.379700,130.038956 903.629150,123.645363 903.984863,117.654129 
	C904.912231,102.033745 898.488220,84.049896 877.855835,79.129570 
	C860.536072,74.999222 842.643677,75.171402 825.313477,78.606812 
	C804.797302,82.673759 794.998779,96.188110 794.998474,116.939484 
	C794.997986,146.422760 794.983398,175.906052 795.025452,205.389282 
	C795.029236,208.035690 795.058655,210.762970 795.661682,213.314301 
	C799.153931,228.090637 809.718933,236.006744 823.387695,239.789398 
	C838.359497,243.932663 853.858582,242.691940 869.031372,241.053070 
	C875.858826,240.315628 882.864990,237.289536 888.867920,233.741653 
	C899.103821,227.691986 904.626160,218.342743 904.106628,205.915985 
	C903.814636,198.931839 903.629822,191.897858 904.114624,184.936310 
	C905.048096,171.531708 897.943359,163.704422 886.637817,158.805908 
	C874.519592,153.555237 861.729736,155.306961 849.250000,156.654739 
	C842.552490,157.378052 838.578064,163.339630 838.977661,168.860718 
	C839.362488,174.177765 844.362183,179.007553 850.793396,179.964142 
	C853.578247,180.378387 856.434631,180.384003 859.260864,180.431320 
	C863.562012,180.503342 867.865295,180.450180 872.717224,180.450180 
	C872.717224,187.342941 872.738220,193.794724 872.711975,200.246323 
	C872.677002,208.851624 869.012695,214.338593 860.571655,216.120087 
	C851.783020,217.974915 842.761414,218.571213 833.567383,214.109787 
M404.823547,80.570946 
	C385.373108,74.728523 365.553558,74.849289 346.198212,79.615105 
	C329.170898,83.807693 319.336823,96.908417 319.279144,112.070633 
	C319.158752,143.729523 319.232025,175.389221 319.261169,207.048553 
	C319.269257,215.834885 322.639374,223.234955 328.928436,229.296310 
	C335.464966,235.596191 343.300049,240.086777 352.222748,240.800705 
	C365.128601,241.833328 378.255035,242.699982 391.087738,241.500977 
	C415.609161,239.209869 428.962280,224.240982 428.478760,202.073364 
	C428.344513,195.920380 425.388336,192.096619 419.978516,189.838364 
	C408.419312,185.013046 398.194244,191.173035 396.925201,203.571793 
	C396.248383,210.184097 392.007233,214.768982 386.021637,215.700089 
	C378.443665,216.878906 370.398438,217.190628 362.866180,215.963867 
	C354.251740,214.560806 350.895691,208.972870 350.891510,200.183533 
	C350.878540,173.023148 350.884369,145.862747 350.894501,118.702362 
	C350.898163,108.924240 356.362000,102.734108 366.164368,101.989822 
	C371.459290,101.587784 376.844482,101.567261 382.130280,102.036041 
	C390.800598,102.804977 396.698151,108.923737 396.978882,116.727402 
	C397.271301,124.856308 403.232391,130.050812 412.369995,130.139282 
	C421.789581,130.230484 428.066742,125.002594 428.431091,116.762909 
	C429.201111,99.347969 422.102753,88.226166 404.823547,80.570946 
M734.176392,134.499924 
	C734.174072,165.659744 734.146362,196.819580 734.185547,227.979355 
	C734.196716,236.894211 739.959900,241.966110 749.862915,242.007004 
	C760.140259,242.049438 765.874390,237.047089 765.879578,227.846680 
	C765.905212,182.190079 765.902283,136.533463 765.877991,90.876862 
	C765.873169,81.857300 760.278625,76.912071 750.228821,76.875587 
	C739.875488,76.838005 734.217590,81.774902 734.188416,91.009308 
	C734.143555,105.172707 734.176514,119.336365 734.176392,134.499924 
z"/>
<path fill="#0680FA" opacity="1.000000" stroke="none" 
	d="
M53.296837,161.898773 
	C39.892342,157.866531 32.059296,147.903992 32.328735,135.661423 
	C32.593407,123.635551 40.552666,113.588486 52.236797,110.531242 
	C67.240646,106.605370 82.373116,116.382767 84.783089,131.943619 
	C85.264374,135.051224 86.579239,136.241074 89.164757,136.976746 
	C90.602013,137.385712 91.995338,137.950027 93.406204,138.450668 
	C98.265999,140.175186 103.369736,143.704987 107.910530,143.087997 
	C111.916992,142.543594 115.182358,137.228638 118.970627,134.270767 
	C132.088470,124.028404 146.886826,121.486267 162.828110,125.421509 
	C165.652603,126.118767 167.029297,125.564735 168.585556,123.344246 
	C173.364136,116.526176 178.491730,109.947533 183.110687,103.026894 
	C184.109528,101.530350 184.364975,98.595070 183.583771,96.996361 
	C173.928879,77.237953 182.357468,54.265682 202.428635,46.236851 
	C222.013550,38.402519 244.513489,49.128147 250.640381,69.219200 
	C256.892731,89.721664 244.538528,110.926071 223.376801,115.434845 
	C219.072311,116.351967 214.440369,115.642197 209.979813,115.964951 
	C208.397049,116.079483 206.262924,116.570923 205.423645,117.679810 
	C199.499344,125.507378 193.846756,133.540604 187.930740,141.753540 
	C193.251160,149.210327 196.889008,157.324661 197.449097,166.559860 
	C197.569702,168.548294 197.952957,170.675034 197.435562,172.519333 
	C195.811447,178.308594 198.097809,181.785278 203.028320,184.672913 
	C207.605637,187.353714 211.895599,190.605713 215.999573,193.985657 
	C218.696152,196.206512 220.829239,196.366867 223.989838,194.815262 
	C241.085754,186.422577 261.113373,193.436935 269.271271,210.436035 
	C277.405487,227.385757 270.256866,247.668625 253.300095,255.751343 
	C230.844421,266.455231 204.683380,249.871307 205.092896,224.933273 
	C205.170547,220.204407 203.961746,217.329529 199.938431,214.823669 
	C194.302292,211.313278 189.098633,207.108490 183.333893,202.928024 
	C175.764160,209.761169 166.961838,214.034897 156.826187,215.680222 
	C127.295929,220.473877 100.498863,197.055969 101.793892,167.302856 
	C101.915100,164.518005 101.372375,163.002975 98.573868,162.224304 
	C95.377319,161.334885 92.195496,160.263962 89.173157,158.903397 
	C82.648010,155.966003 76.960732,154.635223 69.981934,159.459854 
	C65.916504,162.270386 59.211082,161.262177 53.296837,161.898773 
M162.629196,184.232040 
	C170.002228,177.817566 172.004410,169.798859 168.167953,162.049377 
	C164.308044,154.252548 154.255341,149.533646 145.397614,151.541580 
	C137.335754,153.369110 131.495102,157.887726 129.546661,166.227448 
	C127.866287,173.419800 130.587082,179.281174 136.099960,183.881958 
	C143.374496,189.952957 152.876038,190.194382 162.629196,184.232040 
M206.236984,92.373688 
	C215.187469,97.888954 224.719147,95.970978 229.509430,87.690788 
	C233.977890,79.966858 230.941071,70.076591 222.846222,65.990173 
	C216.085938,62.577465 207.701416,64.598846 203.230789,70.719139 
	C198.381943,77.357216 199.271927,85.074883 206.236984,92.373688 
M228.757706,233.617325 
	C232.892258,238.195663 237.937424,239.406738 243.638428,237.275757 
	C248.805634,235.344299 251.501984,231.317612 251.952148,225.905884 
	C252.421616,220.261993 249.058228,215.104324 243.765869,212.932205 
	C238.427643,210.741287 232.679779,212.113785 228.853745,216.493057 
	C224.830872,221.097656 224.624649,226.813385 228.757706,233.617325 
M50.100552,131.891663 
	C48.112843,136.221710 48.704269,140.515839 52.536037,142.995331 
	C55.107876,144.659531 59.024975,145.303543 62.110775,144.848495 
	C66.026550,144.271042 68.034119,140.739899 68.324554,136.785645 
	C68.648933,132.369202 66.632484,129.027222 62.580521,127.231186 
	C58.168190,125.275414 54.277493,126.668335 50.100552,131.891663 
z"/>
<path fill="#010101" opacity="1.000000" stroke="none" 
	d="
M650.998657,242.000702 
	C632.523438,242.000702 614.547852,242.000702 596.276123,242.000702 
	C596.276123,187.061752 596.276123,132.325821 596.276123,77.238884 
	C596.983643,77.140839 597.902832,76.903358 598.822205,76.902214 
	C619.650574,76.876366 640.478882,76.854843 661.307251,76.879288 
	C674.825623,76.895149 686.902466,80.739548 696.519775,90.670593 
	C702.201050,96.537201 705.084778,103.560432 705.067017,111.838287 
	C705.000366,142.830719 704.824524,173.825592 705.135742,204.815048 
	C705.283813,219.554672 698.239563,229.291245 685.986389,236.162598 
	C675.180176,242.222473 663.371216,242.282486 650.998657,242.000702 
M669.983032,211.438629 
	C671.215942,207.763840 673.476929,204.100388 673.517578,200.412430 
	C673.818726,173.112762 673.695801,145.808212 673.666077,118.505226 
	C673.656433,109.627632 668.856934,103.015152 660.053711,102.297050 
	C649.358154,101.424583 638.537170,102.089828 627.645630,102.089828 
	C627.645630,140.411743 627.645630,178.621689 627.645630,217.182114 
	C636.877808,217.182114 645.846802,217.140533 654.815186,217.197403 
	C660.361145,217.232559 665.279846,215.659042 669.983032,211.438629 
z"/>
<path fill="#020202" opacity="1.000000" stroke="none" 
	d="
M1042.439697,191.997742 
	C1042.439697,196.163620 1042.441040,199.830093 1042.439453,203.496582 
	C1042.432007,221.107285 1034.100830,233.203232 1017.268860,238.804626 
	C1011.675415,240.666092 1005.565857,241.834167 999.694580,241.825043 
	C987.422424,241.805969 974.853333,242.267609 962.947205,239.858414 
	C942.739258,235.769348 933.261963,222.489319 933.259277,202.087189 
	C933.255493,173.755295 933.258484,145.423401 933.258118,117.091499 
	C933.257874,96.411873 942.382690,83.585526 962.598328,78.957817 
	C979.738708,75.034081 997.331848,75.399132 1014.587158,79.165855 
	C1022.339050,80.858055 1028.965942,85.185959 1034.398315,91.109192 
	C1040.209717,97.445778 1042.537354,104.943413 1042.491821,113.502441 
	C1042.353516,139.500427 1042.440552,165.499634 1042.439697,191.997742 
M1009.884949,111.093559 
	C1007.354614,106.125893 1003.084900,102.926598 997.836060,102.358612 
	C991.277405,101.648895 984.479065,101.468811 977.971436,102.386864 
	C969.238403,103.618851 964.898376,109.623550 964.895325,118.416183 
	C964.885986,145.704407 964.886780,172.992645 964.897583,200.280869 
	C964.901062,208.980225 968.315979,214.489502 976.930237,216.018295 
	C983.969055,217.267487 991.546143,217.246048 998.615356,216.111145 
	C1007.256226,214.723938 1010.988159,208.914566 1010.991150,200.090332 
	C1011.000488,172.802109 1011.013855,145.513824 1010.957520,118.225723 
	C1010.953125,116.105934 1010.418945,113.987244 1009.884949,111.093559 
z"/>
<path fill="#020202" opacity="1.000000" stroke="none" 
	d="
M551.100464,234.166397 
	C542.393127,239.653641 533.177856,242.136017 523.303894,241.972046 
	C512.497864,241.792618 501.574493,242.267120 490.922852,240.826111 
	C477.471466,239.006348 466.335358,232.260071 460.387421,219.450806 
	C458.443024,215.263443 457.873260,210.126312 457.837860,205.414780 
	C457.616486,175.931320 457.722717,146.445358 457.723602,116.960228 
	C457.724243,96.067375 467.315735,82.772743 487.946472,78.579895 
	C504.427490,75.230415 521.497681,74.982117 537.997070,79.021286 
	C557.604004,83.821205 566.855530,96.564980 566.854370,116.543449 
	C566.852783,145.528839 566.617371,174.517029 566.960693,203.498337 
	C567.116638,216.670776 562.176147,226.665878 551.100464,234.166397 
M535.217896,120.592697 
	C535.156250,109.214378 530.674805,103.092819 520.823547,102.088486 
	C515.060974,101.500992 509.137421,101.511467 503.376495,102.114616 
	C494.268555,103.068207 489.081055,109.489578 489.077515,118.804688 
	C489.067200,145.960236 489.066437,173.115799 489.076050,200.271347 
	C489.079041,208.726181 492.448303,214.305817 500.747253,215.877563 
	C507.787842,217.210953 515.379944,217.358124 522.466064,216.291031 
	C531.437561,214.940033 535.193359,209.198349 535.200134,200.036102 
	C535.219482,173.880157 535.209167,147.724182 535.217896,120.592697 
z"/>
<path fill="#020202" opacity="1.000000" stroke="none" 
	d="
M833.870117,214.337234 
	C842.761414,218.571213 851.783020,217.974915 860.571655,216.120087 
	C869.012695,214.338593 872.677002,208.851624 872.711975,200.246323 
	C872.738220,193.794724 872.717224,187.342941 872.717224,180.450180 
	C867.865295,180.450180 863.562012,180.503342 859.260864,180.431320 
	C856.434631,180.384003 853.578247,180.378387 850.793396,179.964142 
	C844.362183,179.007553 839.362488,174.177765 838.977661,168.860718 
	C838.578064,163.339630 842.552490,157.378052 849.250000,156.654739 
	C861.729736,155.306961 874.519592,153.555237 886.637817,158.805908 
	C897.943359,163.704422 905.048096,171.531708 904.114624,184.936310 
	C903.629822,191.897858 903.814636,198.931839 904.106628,205.915985 
	C904.626160,218.342743 899.103821,227.691986 888.867920,233.741653 
	C882.864990,237.289536 875.858826,240.315628 869.031372,241.053070 
	C853.858582,242.691940 838.359497,243.932663 823.387695,239.789398 
	C809.718933,236.006744 799.153931,228.090637 795.661682,213.314301 
	C795.058655,210.762970 795.029236,208.035690 795.025452,205.389282 
	C794.983398,175.906052 794.997986,146.422760 794.998474,116.939484 
	C794.998779,96.188110 804.797302,82.673759 825.313477,78.606812 
	C842.643677,75.171402 860.536072,74.999222 877.855835,79.129570 
	C898.488220,84.049896 904.912231,102.033745 903.984863,117.654129 
	C903.629150,123.645363 895.379700,130.038956 888.471130,130.137192 
	C880.075134,130.256592 873.794067,125.671654 872.706116,118.629524 
	C870.745056,105.935814 866.078003,101.847145 853.173645,101.694000 
	C849.180786,101.646606 845.153564,101.572121 841.196655,102.006783 
	C831.931396,103.024574 826.501831,109.137627 826.490601,118.334869 
	C826.457214,145.652649 826.549805,172.970840 826.423279,200.288071 
	C826.395386,206.316956 828.311096,210.986588 833.870117,214.337234 
z"/>
<path fill="#030303" opacity="1.000000" stroke="none" 
	d="
M405.176880,80.726212 
	C422.102753,88.226166 429.201111,99.347969 428.431091,116.762909 
	C428.066742,125.002594 421.789581,130.230484 412.369995,130.139282 
	C403.232391,130.050812 397.271301,124.856308 396.978882,116.727402 
	C396.698151,108.923737 390.800598,102.804977 382.130280,102.036041 
	C376.844482,101.567261 371.459290,101.587784 366.164368,101.989822 
	C356.362000,102.734108 350.898163,108.924240 350.894501,118.702362 
	C350.884369,145.862747 350.878540,173.023148 350.891510,200.183533 
	C350.895691,208.972870 354.251740,214.560806 362.866180,215.963867 
	C370.398438,217.190628 378.443665,216.878906 386.021637,215.700089 
	C392.007233,214.768982 396.248383,210.184097 396.925201,203.571793 
	C398.194244,191.173035 408.419312,185.013046 419.978516,189.838364 
	C425.388336,192.096619 428.344513,195.920380 428.478760,202.073364 
	C428.962280,224.240982 415.609161,239.209869 391.087738,241.500977 
	C378.255035,242.699982 365.128601,241.833328 352.222748,240.800705 
	C343.300049,240.086777 335.464966,235.596191 328.928436,229.296310 
	C322.639374,223.234955 319.269257,215.834885 319.261169,207.048553 
	C319.232025,175.389221 319.158752,143.729523 319.279144,112.070633 
	C319.336823,96.908417 329.170898,83.807693 346.198212,79.615105 
	C365.553558,74.849289 385.373108,74.728523 405.176880,80.726212 
z"/>
<path fill="#040404" opacity="1.000000" stroke="none" 
	d="
M734.176392,133.999908 
	C734.176514,119.336365 734.143555,105.172707 734.188416,91.009308 
	C734.217590,81.774902 739.875488,76.838005 750.228821,76.875587 
	C760.278625,76.912071 765.873169,81.857300 765.877991,90.876862 
	C765.902283,136.533463 765.905212,182.190079 765.879578,227.846680 
	C765.874390,237.047089 760.140259,242.049438 749.862915,242.007004 
	C739.959900,241.966110 734.196716,236.894211 734.185547,227.979355 
	C734.146362,196.819580 734.174072,165.659744 734.176392,133.999908 
z"/>
<path fill="#F7FDFE" opacity="1.000000" stroke="none" 
	d="
M162.346069,184.466599 
	C152.876038,190.194382 143.374496,189.952957 136.099960,183.881958 
	C130.587082,179.281174 127.866287,173.419800 129.546661,166.227448 
	C131.495102,157.887726 137.335754,153.369110 145.397614,151.541580 
	C154.255341,149.533646 164.308044,154.252548 168.167953,162.049377 
	C172.004410,169.798859 170.002228,177.817566 162.346069,184.466599 
z"/>
<path fill="#F5FCFE" opacity="1.000000" stroke="none" 
	d="
M205.954819,92.133972 
	C199.271927,85.074883 198.381943,77.357216 203.230789,70.719139 
	C207.701416,64.598846 216.085938,62.577465 222.846222,65.990173 
	C230.941071,70.076591 233.977890,79.966858 229.509430,87.690788 
	C224.719147,95.970978 215.187469,97.888954 205.954819,92.133972 
z"/>
<path fill="#F4FDFD" opacity="1.000000" stroke="none" 
	d="
M228.507294,233.327011 
	C224.624649,226.813385 224.830872,221.097656 228.853745,216.493057 
	C232.679779,212.113785 238.427643,210.741287 243.765869,212.932205 
	C249.058228,215.104324 252.421616,220.261993 251.952148,225.905884 
	C251.501984,231.317612 248.805634,235.344299 243.638428,237.275757 
	C237.937424,239.406738 232.892258,238.195663 228.507294,233.327011 
z"/>
<path fill="#F0FBFE" opacity="1.000000" stroke="none" 
	d="
M50.284859,131.555756 
	C54.277493,126.668335 58.168190,125.275414 62.580521,127.231186 
	C66.632484,129.027222 68.648933,132.369202 68.324554,136.785645 
	C68.034119,140.739899 66.026550,144.271042 62.110775,144.848495 
	C59.024975,145.303543 55.107876,144.659531 52.536037,142.995331 
	C48.704269,140.515839 48.112843,136.221710 50.284859,131.555756 
z"/>
<path fill="#FBFBFB" opacity="1.000000" stroke="none" 
	d="
M669.725220,211.701355 
	C665.279846,215.659042 660.361145,217.232559 654.815186,217.197403 
	C645.846802,217.140533 636.877808,217.182114 627.645630,217.182114 
	C627.645630,178.621689 627.645630,140.411743 627.645630,102.089828 
	C638.537170,102.089828 649.358154,101.424583 660.053711,102.297050 
	C668.856934,103.015152 673.656433,109.627632 673.666077,118.505226 
	C673.695801,145.808212 673.818726,173.112762 673.517578,200.412430 
	C673.476929,204.100388 671.215942,207.763840 669.725220,211.701355 
z"/>
<path fill="#FEFEFE" opacity="1.000000" stroke="none" 
	d="
M1010.007996,111.480797 
	C1010.418945,113.987244 1010.953125,116.105934 1010.957520,118.225723 
	C1011.013855,145.513824 1011.000488,172.802109 1010.991150,200.090332 
	C1010.988159,208.914566 1007.256226,214.723938 998.615356,216.111145 
	C991.546143,217.246048 983.969055,217.267487 976.930237,216.018295 
	C968.315979,214.489502 964.901062,208.980225 964.897583,200.280869 
	C964.886780,172.992645 964.885986,145.704407 964.895325,118.416183 
	C964.898376,109.623550 969.238403,103.618851 977.971436,102.386864 
	C984.479065,101.468811 991.277405,101.648895 997.836060,102.358612 
	C1003.084900,102.926598 1007.354614,106.125893 1010.007996,111.480797 
z"/>
<path fill="#FEFEFE" opacity="1.000000" stroke="none" 
	d="
M535.214233,121.080460 
	C535.209167,147.724182 535.219482,173.880157 535.200134,200.036102 
	C535.193359,209.198349 531.437561,214.940033 522.466064,216.291031 
	C515.379944,217.358124 507.787842,217.210953 500.747253,215.877563 
	C492.448303,214.305817 489.079041,208.726181 489.076050,200.271347 
	C489.066437,173.115799 489.067200,145.960236 489.077515,118.804688 
	C489.081055,109.489578 494.268555,103.068207 503.376495,102.114616 
	C509.137421,101.511467 515.060974,101.500992 520.823547,102.088486 
	C530.674805,103.092819 535.156250,109.214378 535.214233,121.080460 
z"/>
</svg>